<svg width="40" height="40" viewBox="0 0 40 40" fill="none" xmlns="http://www.w3.org/2000/svg" aria-hidden="true" role="img" class="iconify iconify--logos"><path fill-rule="evenodd" clip-rule="evenodd" d="M6.344 10.344C7.84422 8.84421 9.87869 8.00169 12 8.00169C14.1213 8.00169 16.1558 8.84421 17.656 10.344L20 12.686L22.344 10.344C23.082 9.5799 23.9647 8.97044 24.9408 8.55117C25.9168 8.13189 26.9666 7.9112 28.0288 7.90197C29.091 7.89274 30.1445 8.09516 31.1276 8.4974C32.1108 8.89965 33.004 9.49368 33.7552 10.2448C34.5063 10.996 35.1003 11.8892 35.5026 12.8723C35.9048 13.8555 36.1072 14.909 36.098 15.9712C36.0888 17.0334 35.8681 18.0832 35.4488 19.0592C35.0295 20.0352 34.4201 20.918 33.656 21.656L20 35.314L6.344 21.656C4.84423 20.1558 4.00171 18.1213 4.00171 16C4.00171 13.8787 4.84423 11.8442 6.344 10.344V10.344Z" fill="#FF0000"/></svg> 